<svg width="79" height="26" viewBox="0 0 79 26" fill="none" xmlns="http://www.w3.org/2000/svg">
<path d="M0.187988 12.9574C0.187988 10.5332 0.725603 8.377 1.80083 6.48889C2.87606 4.57747 4.36943 3.09728 6.28095 2.04833C8.21636 0.976072 10.4027 0.439941 12.8398 0.439941C15.8266 0.439941 18.3832 1.20917 20.5098 2.74763C22.6364 4.2861 24.0581 6.384 24.7749 9.04134H18.0368C17.535 8.0157 16.8182 7.23481 15.8863 6.69868C14.9784 6.16255 13.939 5.89449 12.7682 5.89449C10.8805 5.89449 9.35133 6.53551 8.18052 7.81756C7.00972 9.09961 6.42431 10.8129 6.42431 12.9574C6.42431 15.1019 7.00972 16.8152 8.18052 18.0973C9.35133 19.3793 10.8805 20.0204 12.7682 20.0204C13.939 20.0204 14.9784 19.7523 15.8863 19.2162C16.8182 18.68 17.535 17.8991 18.0368 16.8735H24.7749C24.0581 19.5309 22.6364 21.6288 20.5098 23.1672C18.3832 24.6824 15.8266 25.4399 12.8398 25.4399C10.4027 25.4399 8.21636 24.9155 6.28095 23.8665C4.36943 22.7943 2.87606 21.3141 1.80083 19.426C0.725603 17.5378 0.187988 15.3817 0.187988 12.9574Z" fill="#03CE7D"/>
<path d="M37.9543 0.719662C40.6065 0.719662 42.9242 1.23248 44.9074 2.25812C46.8906 3.28376 48.4198 4.72899 49.4951 6.59379C50.5942 8.43528 51.1437 10.5681 51.1437 12.9924C51.1437 15.3933 50.5942 17.5262 49.4951 19.391C48.4198 21.2558 46.8787 22.701 44.8716 23.7267C42.8884 24.7523 40.5826 25.2651 37.9543 25.2651H28.5281V0.719662H37.9543ZM37.56 20.0903C39.8777 20.0903 41.6817 19.4726 42.972 18.2371C44.2623 17.0017 44.9074 15.2535 44.9074 12.9924C44.9074 10.7313 44.2623 8.97141 42.972 7.71267C41.6817 6.45393 39.8777 5.82456 37.56 5.82456H34.6569V20.0903H37.56Z" fill="#03CE7D"/>
<path d="M78.188 0.719662L69.2636 25.2651H61.5936L52.6692 0.719662H59.1923L65.4286 19.2511L71.7008 0.719662H78.188Z" fill="#03CE7D"/>
</svg>
