<svg width="98" height="98" viewBox="0 0 98 98" fill="none" xmlns="http://www.w3.org/2000/svg">
<rect width="98" height="98" rx="16" fill="#222222"/>
<path d="M10 49.5175C10 47.0932 10.5376 44.9371 11.6128 43.049C12.6881 41.1375 14.1814 39.6573 16.093 38.6084C18.0284 37.5361 20.2147 37 22.6519 37C25.6386 37 28.1953 37.7692 30.3218 39.3077C32.4484 40.8462 33.8701 42.9441 34.5869 45.6014H27.8488C27.347 44.5758 26.6302 43.7949 25.6983 43.2587C24.7904 42.7226 23.751 42.4545 22.5802 42.4545C20.6926 42.4545 19.1633 43.0956 17.9925 44.3776C16.8217 45.6597 16.2363 47.373 16.2363 49.5175C16.2363 51.662 16.8217 53.3753 17.9925 54.6573C19.1633 55.9394 20.6926 56.5804 22.5802 56.5804C23.751 56.5804 24.7904 56.3124 25.6983 55.7762C26.6302 55.2401 27.347 54.4592 27.8488 53.4336H34.5869C33.8701 56.0909 32.4484 58.1888 30.3218 59.7273C28.1953 61.2424 25.6386 62 22.6519 62C20.2147 62 18.0284 61.4755 16.093 60.4266C14.1814 59.3543 12.6881 57.8741 11.6128 55.986C10.5376 54.0979 10 51.9417 10 49.5175Z" fill="#03CE7D"/>
<path d="M47.7663 37.2797C50.4185 37.2797 52.7362 37.7925 54.7194 38.8182C56.7026 39.8438 58.2318 41.289 59.3071 43.1538C60.4062 44.9953 60.9558 47.1282 60.9558 49.5524C60.9558 51.9534 60.4062 54.0862 59.3071 55.951C58.2318 57.8159 56.6907 59.2611 54.6836 60.2867C52.7004 61.3124 50.3946 61.8252 47.7663 61.8252H38.3401V37.2797H47.7663ZM47.372 56.6504C49.6898 56.6504 51.4937 56.0326 52.784 54.7972C54.0743 53.5618 54.7194 51.8135 54.7194 49.5524C54.7194 47.2914 54.0743 45.5315 52.784 44.2727C51.4937 43.014 49.6898 42.3846 47.372 42.3846H44.4689V56.6504H47.372Z" fill="#03CE7D"/>
<path d="M88 37.2797L79.0756 61.8252H71.4056L62.4812 37.2797H69.0043L75.2406 55.8112L81.5128 37.2797H88Z" fill="#03CE7D"/>
</svg>
