<svg width="1200" height="600" viewBox="0 0 1200 600" fill="none" xmlns="http://www.w3.org/2000/svg">
<rect width="1200" height="600" fill="white"/>
<path d="M152 278.377C152 266.702 154.551 256.317 159.653 247.224C164.755 238.018 171.841 230.889 180.911 225.837C190.095 220.673 200.469 218.091 212.033 218.091C226.205 218.091 238.336 221.796 248.427 229.205C258.517 236.615 265.263 246.719 268.665 259.517H236.692C234.312 254.577 230.91 250.816 226.489 248.234C222.18 245.652 217.248 244.361 211.693 244.361C202.736 244.361 195.48 247.448 189.925 253.623C184.369 259.797 181.591 268.049 181.591 278.377C181.591 288.706 184.369 296.957 189.925 303.132C195.48 309.306 202.736 312.393 211.693 312.393C217.248 312.393 222.18 311.102 226.489 308.52C230.91 305.938 234.312 302.177 236.692 297.238H268.665C265.263 310.036 258.517 320.14 248.427 327.549C238.336 334.846 226.205 338.495 212.033 338.495C200.469 338.495 190.095 335.969 180.911 330.917C171.841 325.753 164.755 318.624 159.653 309.531C154.551 300.437 152 290.053 152 278.377Z" fill="#3F3F3F"/>
<path d="M280.692 290.502C280.692 280.847 282.506 272.371 286.134 265.074C289.875 257.777 294.92 252.163 301.269 248.234C307.619 244.305 314.705 242.34 322.528 242.34C329.217 242.34 335.056 243.688 340.044 246.382C345.146 249.076 349.058 252.613 351.779 256.991V243.688H380.86V337.653H351.779V324.349C348.944 328.728 344.976 332.264 339.874 334.958C334.886 337.653 329.047 339 322.357 339C314.648 339 307.619 337.035 301.269 333.106C294.92 329.065 289.875 323.395 286.134 316.098C282.506 308.689 280.692 300.157 280.692 290.502ZM351.779 290.67C351.779 283.485 349.738 277.816 345.656 273.662C341.688 269.508 336.813 267.431 331.031 267.431C325.249 267.431 320.317 269.508 316.235 273.662C312.267 277.704 310.283 283.317 310.283 290.502C310.283 297.687 312.267 303.412 316.235 307.678C320.317 311.832 325.249 313.909 331.031 313.909C336.813 313.909 341.688 311.832 345.656 307.678C349.738 303.524 351.779 297.855 351.779 290.67Z" fill="#3F3F3F"/>
<path d="M416.524 233.921C411.422 233.921 407.228 232.461 403.94 229.542C400.765 226.511 399.178 222.806 399.178 218.428C399.178 213.937 400.765 210.233 403.94 207.314C407.228 204.283 411.422 202.767 416.524 202.767C421.513 202.767 425.595 204.283 428.769 207.314C432.057 210.233 433.701 213.937 433.701 218.428C433.701 222.806 432.057 226.511 428.769 229.542C425.595 232.461 421.513 233.921 416.524 233.921ZM430.98 243.688V337.653H401.899V243.688H430.98Z" fill="#3F3F3F"/>
<path d="M481.136 259.348C484.537 254.184 488.789 250.143 493.891 247.224C498.993 244.193 504.662 242.677 510.897 242.677V273.157H502.904C495.648 273.157 490.206 274.729 486.578 277.872C482.95 280.903 481.136 286.292 481.136 294.038V337.653H452.055V243.688H481.136V259.348Z" fill="#3F3F3F"/>
<path d="M614.252 289.155C614.252 291.849 614.082 294.656 613.742 297.574H547.926C548.38 303.412 550.251 307.903 553.539 311.046C556.94 314.077 561.078 315.593 565.953 315.593C573.209 315.593 578.255 312.562 581.089 306.499H612.041C610.454 312.674 607.563 318.231 603.368 323.171C599.286 328.11 594.127 331.983 587.892 334.79C581.656 337.597 574.683 339 566.974 339C557.677 339 549.4 337.035 542.144 333.106C534.888 329.177 529.219 323.564 525.138 316.266C521.056 308.969 519.015 300.437 519.015 290.67C519.015 280.903 520.999 272.371 524.968 265.074C529.049 257.777 534.718 252.163 541.974 248.234C549.23 244.305 557.563 242.34 566.974 242.34C576.157 242.34 584.32 244.249 591.463 248.066C598.606 251.883 604.161 257.328 608.129 264.4C612.211 271.473 614.252 279.724 614.252 289.155ZM584.49 281.577C584.49 276.637 582.79 272.708 579.388 269.789C575.987 266.87 571.736 265.411 566.634 265.411C561.758 265.411 557.62 266.814 554.219 269.621C550.931 272.427 548.89 276.413 548.096 281.577H584.49Z" fill="#3F3F3F"/>
<path d="M668.198 339C659.922 339 652.552 337.597 646.09 334.79C639.627 331.983 634.525 328.166 630.784 323.339C627.043 318.399 624.945 312.899 624.492 306.836H653.233C653.573 310.092 655.103 312.73 657.824 314.751C660.545 316.772 663.89 317.782 667.858 317.782C671.486 317.782 674.264 317.108 676.191 315.761C678.232 314.302 679.253 312.449 679.253 310.204C679.253 307.51 677.835 305.545 675.001 304.31C672.167 302.963 667.575 301.504 661.226 299.932C654.423 298.36 648.754 296.732 644.219 295.048C639.684 293.252 635.773 290.502 632.485 286.797C629.197 282.98 627.553 277.872 627.553 271.473C627.553 266.084 629.027 261.201 631.974 256.822C635.036 252.332 639.457 248.796 645.24 246.213C651.135 243.631 658.108 242.34 666.158 242.34C678.062 242.34 687.416 245.259 694.218 251.097C701.134 256.935 705.103 264.681 706.123 274.336H679.253C678.799 271.08 677.325 268.498 674.831 266.589C672.45 264.681 669.275 263.727 665.307 263.727C661.906 263.727 659.298 264.4 657.484 265.747C655.67 266.982 654.763 268.722 654.763 270.968C654.763 273.662 656.18 275.683 659.015 277.03C661.963 278.377 666.498 279.724 672.62 281.072C679.649 282.868 685.375 284.664 689.797 286.46C694.218 288.144 698.073 290.951 701.361 294.88C704.762 298.697 706.52 303.861 706.633 310.373C706.633 315.874 705.046 320.813 701.871 325.191C698.81 329.458 694.332 332.825 688.436 335.295C682.654 337.765 675.908 339 668.198 339Z" fill="#3F3F3F"/>
<path d="M769.152 219.438C781.737 219.438 792.734 221.908 802.145 226.848C811.555 231.787 818.811 238.748 823.913 247.729C829.128 256.598 831.736 266.87 831.736 278.546C831.736 290.109 829.128 300.381 823.913 309.362C818.811 318.343 811.498 325.304 801.975 330.243C792.564 335.183 781.623 337.653 769.152 337.653H724.425V219.438H769.152ZM767.281 312.73C778.279 312.73 786.839 309.755 792.961 303.805C799.083 297.855 802.145 289.435 802.145 278.546C802.145 267.656 799.083 259.18 792.961 253.118C786.839 247.055 778.279 244.024 767.281 244.024H753.506V312.73H767.281Z" fill="#3F3F3F"/>
<path d="M937.442 289.155C937.442 291.849 937.272 294.656 936.932 297.574H871.117C871.57 303.412 873.441 307.903 876.729 311.046C880.13 314.077 884.268 315.593 889.144 315.593C896.4 315.593 901.445 312.562 904.279 306.499H935.231C933.644 312.674 930.753 318.231 926.558 323.171C922.476 328.11 917.318 331.983 911.082 334.79C904.846 337.597 897.874 339 890.164 339C880.867 339 872.591 337.035 865.334 333.106C858.078 329.177 852.41 323.564 848.328 316.266C844.246 308.969 842.206 300.437 842.206 290.67C842.206 280.903 844.19 272.371 848.158 265.074C852.239 257.777 857.908 252.163 865.164 248.234C872.421 244.305 880.754 242.34 890.164 242.34C899.347 242.34 907.511 244.249 914.653 248.066C921.796 251.883 927.352 257.328 931.32 264.4C935.401 271.473 937.442 279.724 937.442 289.155ZM907.681 281.577C907.681 276.637 905.98 272.708 902.579 269.789C899.177 266.87 894.926 265.411 889.824 265.411C884.949 265.411 880.81 266.814 877.409 269.621C874.121 272.427 872.08 276.413 871.287 281.577H907.681Z" fill="#3F3F3F"/>
<path d="M995.47 310.709L1016.05 243.688H1047L1013.33 337.653H977.443L943.77 243.688H974.892L995.47 310.709Z" fill="#3F3F3F"/>
<path d="M401.486 218.372C401.486 209.33 408.888 202 418.02 202C427.151 202 434.554 209.33 434.554 218.372C434.554 227.414 427.151 234.744 418.02 234.744C408.888 234.744 401.486 227.414 401.486 218.372Z" fill="#03CE7D"/>
<path d="M414.608 374.545H417.744V386.818C417.739 387.943 417.5 388.912 417.028 389.724C416.557 390.531 415.898 391.153 415.051 391.591C414.21 392.023 413.23 392.239 412.111 392.239C411.088 392.239 410.168 392.057 409.349 391.693C408.537 391.324 407.892 390.778 407.415 390.057C406.938 389.335 406.699 388.437 406.699 387.364H409.844C409.849 387.835 409.952 388.241 410.151 388.582C410.355 388.923 410.636 389.185 410.994 389.366C411.352 389.548 411.764 389.639 412.23 389.639C412.736 389.639 413.165 389.534 413.517 389.324C413.869 389.108 414.136 388.79 414.318 388.369C414.506 387.949 414.602 387.432 414.608 386.818V374.545ZM426.749 392.256C425.47 392.256 424.362 391.974 423.425 391.412C422.487 390.849 421.76 390.062 421.243 389.051C420.732 388.04 420.476 386.858 420.476 385.506C420.476 384.153 420.732 382.969 421.243 381.952C421.76 380.935 422.487 380.145 423.425 379.582C424.362 379.02 425.47 378.739 426.749 378.739C428.027 378.739 429.135 379.02 430.072 379.582C431.01 380.145 431.734 380.935 432.246 381.952C432.763 382.969 433.021 384.153 433.021 385.506C433.021 386.858 432.763 388.04 432.246 389.051C431.734 390.062 431.01 390.849 430.072 391.412C429.135 391.974 428.027 392.256 426.749 392.256ZM426.766 389.784C427.459 389.784 428.038 389.594 428.504 389.213C428.97 388.827 429.317 388.31 429.544 387.662C429.777 387.014 429.893 386.293 429.893 385.497C429.893 384.696 429.777 383.972 429.544 383.324C429.317 382.67 428.97 382.151 428.504 381.764C428.038 381.378 427.459 381.185 426.766 381.185C426.055 381.185 425.464 381.378 424.993 381.764C424.527 382.151 424.178 382.67 423.945 383.324C423.717 383.972 423.604 384.696 423.604 385.497C423.604 386.293 423.717 387.014 423.945 387.662C424.178 388.31 424.527 388.827 424.993 389.213C425.464 389.594 426.055 389.784 426.766 389.784ZM439.407 392.264C438.577 392.264 437.83 392.116 437.165 391.821C436.506 391.52 435.984 391.077 435.597 390.491C435.217 389.906 435.026 389.185 435.026 388.327C435.026 387.588 435.163 386.977 435.435 386.494C435.708 386.011 436.08 385.625 436.552 385.335C437.023 385.045 437.555 384.827 438.146 384.679C438.742 384.526 439.359 384.415 439.995 384.347C440.762 384.267 441.384 384.196 441.862 384.134C442.339 384.065 442.685 383.963 442.901 383.827C443.123 383.685 443.234 383.466 443.234 383.17V383.119C443.234 382.477 443.043 381.98 442.663 381.628C442.282 381.276 441.734 381.099 441.018 381.099C440.262 381.099 439.663 381.264 439.219 381.594C438.782 381.923 438.487 382.312 438.333 382.761L435.452 382.352C435.68 381.557 436.055 380.892 436.577 380.358C437.1 379.818 437.739 379.415 438.495 379.148C439.251 378.875 440.086 378.739 441.001 378.739C441.631 378.739 442.259 378.812 442.884 378.96C443.509 379.108 444.08 379.352 444.597 379.693C445.114 380.028 445.529 380.486 445.842 381.065C446.16 381.645 446.319 382.369 446.319 383.239V392H443.353V390.202H443.251C443.063 390.565 442.799 390.906 442.458 391.224C442.123 391.537 441.7 391.79 441.188 391.983C440.683 392.17 440.089 392.264 439.407 392.264ZM440.208 389.997C440.827 389.997 441.364 389.875 441.819 389.631C442.273 389.381 442.623 389.051 442.867 388.642C443.117 388.233 443.242 387.787 443.242 387.304V385.761C443.146 385.841 442.981 385.915 442.748 385.983C442.521 386.051 442.265 386.111 441.981 386.162C441.697 386.213 441.415 386.259 441.137 386.298C440.859 386.338 440.617 386.372 440.413 386.401C439.952 386.463 439.54 386.565 439.177 386.707C438.813 386.849 438.526 387.048 438.316 387.304C438.106 387.554 438.001 387.878 438.001 388.276C438.001 388.844 438.208 389.273 438.623 389.562C439.038 389.852 439.566 389.997 440.208 389.997ZM438.631 377.315L436.765 377.273C436.765 376.261 437.026 375.469 437.549 374.895C438.072 374.321 438.717 374.034 439.484 374.034C439.853 374.034 440.174 374.097 440.447 374.222C440.719 374.341 440.969 374.48 441.197 374.639C441.43 374.798 441.657 374.94 441.879 375.065C442.1 375.185 442.344 375.244 442.612 375.244C442.935 375.244 443.191 375.122 443.379 374.878C443.572 374.634 443.671 374.321 443.677 373.94L445.509 374.017C445.504 375.034 445.239 375.824 444.717 376.386C444.194 376.943 443.552 377.224 442.79 377.23C442.381 377.236 442.038 377.176 441.759 377.051C441.481 376.926 441.237 376.784 441.026 376.625C440.822 376.466 440.614 376.327 440.404 376.207C440.194 376.082 439.947 376.02 439.663 376.02C439.362 376.02 439.114 376.139 438.921 376.378C438.728 376.616 438.631 376.929 438.631 377.315ZM455.131 392.256C453.853 392.256 452.745 391.974 451.808 391.412C450.87 390.849 450.143 390.062 449.626 389.051C449.114 388.04 448.859 386.858 448.859 385.506C448.859 384.153 449.114 382.969 449.626 381.952C450.143 380.935 450.87 380.145 451.808 379.582C452.745 379.02 453.853 378.739 455.131 378.739C456.41 378.739 457.518 379.02 458.455 379.582C459.393 380.145 460.117 380.935 460.629 381.952C461.146 382.969 461.404 384.153 461.404 385.506C461.404 386.858 461.146 388.04 460.629 389.051C460.117 390.062 459.393 390.849 458.455 391.412C457.518 391.974 456.41 392.256 455.131 392.256ZM455.148 389.784C455.842 389.784 456.421 389.594 456.887 389.213C457.353 388.827 457.7 388.31 457.927 387.662C458.16 387.014 458.276 386.293 458.276 385.497C458.276 384.696 458.16 383.972 457.927 383.324C457.7 382.67 457.353 382.151 456.887 381.764C456.421 381.378 455.842 381.185 455.148 381.185C454.438 381.185 453.847 381.378 453.376 381.764C452.91 382.151 452.56 382.67 452.327 383.324C452.1 383.972 451.987 384.696 451.987 385.497C451.987 386.293 452.1 387.014 452.327 387.662C452.56 388.31 452.91 388.827 453.376 389.213C453.847 389.594 454.438 389.784 455.148 389.784ZM485.053 380.435H481.865C481.774 379.912 481.607 379.449 481.362 379.045C481.118 378.636 480.814 378.29 480.45 378.006C480.087 377.722 479.672 377.509 479.206 377.366C478.746 377.219 478.249 377.145 477.714 377.145C476.766 377.145 475.925 377.384 475.192 377.861C474.459 378.332 473.885 379.026 473.47 379.94C473.055 380.849 472.848 381.96 472.848 383.273C472.848 384.608 473.055 385.733 473.47 386.648C473.891 387.557 474.464 388.244 475.192 388.71C475.925 389.17 476.763 389.401 477.706 389.401C478.229 389.401 478.717 389.332 479.172 389.196C479.632 389.054 480.044 388.847 480.408 388.574C480.777 388.301 481.087 387.966 481.337 387.568C481.592 387.17 481.768 386.716 481.865 386.205L485.053 386.222C484.933 387.051 484.675 387.83 484.277 388.557C483.885 389.284 483.371 389.926 482.734 390.483C482.098 391.034 481.354 391.466 480.501 391.778C479.649 392.085 478.703 392.239 477.663 392.239C476.129 392.239 474.76 391.884 473.555 391.173C472.351 390.463 471.402 389.438 470.709 388.097C470.016 386.756 469.669 385.148 469.669 383.273C469.669 381.392 470.018 379.784 470.717 378.449C471.416 377.108 472.368 376.082 473.572 375.372C474.777 374.662 476.141 374.307 477.663 374.307C478.635 374.307 479.538 374.443 480.374 374.716C481.209 374.989 481.953 375.389 482.607 375.918C483.26 376.44 483.797 377.082 484.217 377.844C484.643 378.599 484.922 379.463 485.053 380.435ZM491.579 392.264C490.749 392.264 490.002 392.116 489.337 391.821C488.678 391.52 488.156 391.077 487.769 390.491C487.388 389.906 487.198 389.185 487.198 388.327C487.198 387.588 487.335 386.977 487.607 386.494C487.88 386.011 488.252 385.625 488.724 385.335C489.195 385.045 489.727 384.827 490.317 384.679C490.914 384.526 491.531 384.415 492.167 384.347C492.934 384.267 493.556 384.196 494.033 384.134C494.511 384.065 494.857 383.963 495.073 383.827C495.295 383.685 495.406 383.466 495.406 383.17V383.119C495.406 382.477 495.215 381.98 494.835 381.628C494.454 381.276 493.906 381.099 493.19 381.099C492.434 381.099 491.835 381.264 491.391 381.594C490.954 381.923 490.658 382.312 490.505 382.761L487.624 382.352C487.852 381.557 488.227 380.892 488.749 380.358C489.272 379.818 489.911 379.415 490.667 379.148C491.423 378.875 492.258 378.739 493.173 378.739C493.803 378.739 494.431 378.812 495.056 378.96C495.681 379.108 496.252 379.352 496.769 379.693C497.286 380.028 497.701 380.486 498.013 381.065C498.332 381.645 498.491 382.369 498.491 383.239V392H495.525V390.202H495.423C495.235 390.565 494.971 390.906 494.63 391.224C494.295 391.537 493.871 391.79 493.36 391.983C492.854 392.17 492.261 392.264 491.579 392.264ZM492.38 389.997C492.999 389.997 493.536 389.875 493.991 389.631C494.445 389.381 494.795 389.051 495.039 388.642C495.289 388.233 495.414 387.787 495.414 387.304V385.761C495.317 385.841 495.153 385.915 494.92 385.983C494.692 386.051 494.437 386.111 494.153 386.162C493.869 386.213 493.587 386.259 493.309 386.298C493.031 386.338 492.789 386.372 492.585 386.401C492.124 386.463 491.712 386.565 491.349 386.707C490.985 386.849 490.698 387.048 490.488 387.304C490.278 387.554 490.173 387.878 490.173 388.276C490.173 388.844 490.38 389.273 490.795 389.562C491.21 389.852 491.738 389.997 492.38 389.997ZM501.593 392V378.909H504.678V392H501.593ZM503.144 377.051C502.656 377.051 502.235 376.889 501.883 376.565C501.531 376.236 501.354 375.841 501.354 375.381C501.354 374.915 501.531 374.52 501.883 374.196C502.235 373.866 502.656 373.702 503.144 373.702C503.638 373.702 504.059 373.866 504.406 374.196C504.758 374.52 504.934 374.915 504.934 375.381C504.934 375.841 504.758 376.236 504.406 376.565C504.059 376.889 503.638 377.051 503.144 377.051ZM507.851 392V378.909H510.842V381.091H510.979C511.217 380.335 511.626 379.753 512.206 379.344C512.791 378.929 513.459 378.722 514.209 378.722C514.379 378.722 514.57 378.73 514.78 378.747C514.996 378.759 515.175 378.778 515.317 378.807V381.645C515.186 381.599 514.979 381.56 514.695 381.526C514.416 381.486 514.146 381.466 513.885 381.466C513.322 381.466 512.817 381.588 512.368 381.832C511.925 382.071 511.575 382.403 511.32 382.83C511.064 383.256 510.936 383.747 510.936 384.304V392H507.851ZM522.623 392.256C521.31 392.256 520.177 391.983 519.222 391.438C518.273 390.886 517.543 390.108 517.032 389.102C516.521 388.091 516.265 386.901 516.265 385.531C516.265 384.185 516.521 383.003 517.032 381.986C517.549 380.963 518.271 380.168 519.197 379.599C520.123 379.026 521.211 378.739 522.461 378.739C523.268 378.739 524.029 378.869 524.745 379.131C525.467 379.386 526.103 379.784 526.654 380.324C527.211 380.864 527.648 381.551 527.967 382.386C528.285 383.216 528.444 384.205 528.444 385.352V386.298H517.714V384.219H525.487C525.481 383.628 525.353 383.102 525.103 382.642C524.853 382.176 524.504 381.81 524.055 381.543C523.612 381.276 523.094 381.142 522.504 381.142C521.873 381.142 521.319 381.295 520.842 381.602C520.364 381.903 519.992 382.301 519.725 382.795C519.464 383.284 519.33 383.821 519.325 384.406V386.222C519.325 386.983 519.464 387.636 519.742 388.182C520.021 388.722 520.41 389.136 520.91 389.426C521.41 389.71 521.995 389.852 522.665 389.852C523.114 389.852 523.521 389.79 523.884 389.665C524.248 389.534 524.563 389.344 524.83 389.094C525.097 388.844 525.299 388.534 525.435 388.165L528.316 388.489C528.134 389.25 527.788 389.915 527.276 390.483C526.771 391.045 526.123 391.483 525.333 391.795C524.543 392.102 523.64 392.256 522.623 392.256ZM541.401 382.369L538.588 382.676C538.509 382.392 538.369 382.125 538.17 381.875C537.977 381.625 537.716 381.423 537.386 381.27C537.057 381.116 536.653 381.04 536.176 381.04C535.534 381.04 534.994 381.179 534.557 381.457C534.125 381.736 533.912 382.097 533.918 382.54C533.912 382.92 534.051 383.23 534.335 383.469C534.625 383.707 535.102 383.903 535.767 384.057L538 384.534C539.239 384.801 540.159 385.224 540.761 385.804C541.369 386.384 541.676 387.142 541.682 388.08C541.676 388.903 541.435 389.631 540.957 390.261C540.486 390.886 539.83 391.375 538.989 391.727C538.148 392.08 537.182 392.256 536.091 392.256C534.489 392.256 533.199 391.92 532.222 391.25C531.244 390.574 530.662 389.634 530.474 388.429L533.483 388.139C533.619 388.73 533.909 389.176 534.352 389.477C534.795 389.778 535.372 389.929 536.082 389.929C536.815 389.929 537.403 389.778 537.847 389.477C538.295 389.176 538.52 388.804 538.52 388.361C538.52 387.986 538.375 387.676 538.085 387.432C537.801 387.187 537.358 387 536.756 386.869L534.523 386.401C533.267 386.139 532.338 385.699 531.736 385.08C531.134 384.455 530.835 383.665 530.841 382.71C530.835 381.903 531.054 381.205 531.497 380.614C531.946 380.017 532.568 379.557 533.364 379.233C534.165 378.903 535.088 378.739 536.134 378.739C537.668 378.739 538.875 379.065 539.756 379.719C540.642 380.372 541.19 381.256 541.401 382.369ZM554.321 368.92V397.625H551.457V368.92H554.321ZM564.87 392V374.545H576.052V377.196H568.032V381.935H575.285V384.585H568.032V392H564.87ZM586.32 386.494V378.909H589.405V392H586.413V389.673H586.277C585.982 390.406 585.496 391.006 584.82 391.472C584.149 391.937 583.322 392.17 582.339 392.17C581.482 392.17 580.723 391.98 580.064 391.599C579.411 391.213 578.899 390.653 578.53 389.92C578.161 389.182 577.976 388.29 577.976 387.244V378.909H581.061V386.767C581.061 387.597 581.288 388.256 581.743 388.744C582.197 389.233 582.794 389.477 583.533 389.477C583.987 389.477 584.428 389.366 584.854 389.145C585.28 388.923 585.629 388.594 585.902 388.156C586.18 387.713 586.32 387.159 586.32 386.494ZM595.663 374.545V392H592.577V374.545H595.663ZM601.92 374.545V392H598.835V374.545H601.92ZM614.715 379.344C614.636 378.599 614.3 378.02 613.71 377.605C613.124 377.19 612.363 376.983 611.425 376.983C610.766 376.983 610.201 377.082 609.729 377.281C609.258 377.48 608.897 377.75 608.647 378.091C608.397 378.432 608.269 378.821 608.263 379.259C608.263 379.622 608.346 379.937 608.511 380.205C608.681 380.472 608.911 380.699 609.201 380.886C609.491 381.068 609.812 381.222 610.164 381.347C610.516 381.472 610.871 381.577 611.229 381.662L612.866 382.071C613.525 382.224 614.158 382.432 614.766 382.693C615.38 382.955 615.928 383.284 616.411 383.682C616.9 384.08 617.286 384.56 617.57 385.122C617.854 385.685 617.996 386.344 617.996 387.099C617.996 388.122 617.735 389.023 617.212 389.801C616.69 390.574 615.934 391.179 614.945 391.616C613.962 392.048 612.772 392.264 611.374 392.264C610.016 392.264 608.837 392.054 607.837 391.634C606.843 391.213 606.065 390.599 605.502 389.793C604.945 388.986 604.644 388.003 604.599 386.844H607.71C607.755 387.452 607.942 387.957 608.272 388.361C608.602 388.764 609.031 389.065 609.559 389.264C610.093 389.463 610.69 389.562 611.349 389.562C612.036 389.562 612.638 389.46 613.156 389.256C613.678 389.045 614.087 388.756 614.383 388.386C614.678 388.011 614.829 387.574 614.835 387.074C614.829 386.619 614.695 386.244 614.434 385.949C614.173 385.648 613.806 385.398 613.335 385.199C612.869 384.994 612.323 384.812 611.698 384.653L609.712 384.142C608.275 383.773 607.138 383.213 606.303 382.463C605.474 381.707 605.059 380.705 605.059 379.455C605.059 378.426 605.337 377.526 605.894 376.753C606.457 375.98 607.221 375.381 608.187 374.955C609.153 374.523 610.246 374.307 611.468 374.307C612.707 374.307 613.792 374.523 614.724 374.955C615.661 375.381 616.397 375.974 616.931 376.736C617.465 377.491 617.741 378.361 617.758 379.344H614.715ZM627.216 378.909V381.295H619.69V378.909H627.216ZM621.548 375.773H624.634V388.062C624.634 388.477 624.696 388.795 624.821 389.017C624.952 389.233 625.122 389.381 625.332 389.46C625.543 389.54 625.776 389.58 626.031 389.58C626.224 389.58 626.401 389.565 626.56 389.537C626.724 389.509 626.849 389.483 626.935 389.46L627.455 391.872C627.29 391.929 627.054 391.991 626.747 392.06C626.446 392.128 626.077 392.168 625.639 392.179C624.866 392.202 624.17 392.085 623.551 391.83C622.932 391.568 622.44 391.165 622.077 390.619C621.719 390.074 621.543 389.392 621.548 388.574V375.773ZM633.563 392.264C632.734 392.264 631.987 392.116 631.322 391.821C630.663 391.52 630.14 391.077 629.754 390.491C629.373 389.906 629.183 389.185 629.183 388.327C629.183 387.588 629.319 386.977 629.592 386.494C629.864 386.011 630.237 385.625 630.708 385.335C631.18 385.045 631.711 384.827 632.302 384.679C632.898 384.526 633.515 384.415 634.151 384.347C634.918 384.267 635.54 384.196 636.018 384.134C636.495 384.065 636.842 383.963 637.058 383.827C637.279 383.685 637.39 383.466 637.39 383.17V383.119C637.39 382.477 637.2 381.98 636.819 381.628C636.438 381.276 635.89 381.099 635.174 381.099C634.418 381.099 633.819 381.264 633.376 381.594C632.938 381.923 632.643 382.312 632.489 382.761L629.609 382.352C629.836 381.557 630.211 380.892 630.734 380.358C631.256 379.818 631.896 379.415 632.651 379.148C633.407 378.875 634.242 378.739 635.157 378.739C635.788 378.739 636.415 378.812 637.04 378.96C637.665 379.108 638.237 379.352 638.754 379.693C639.271 380.028 639.685 380.486 639.998 381.065C640.316 381.645 640.475 382.369 640.475 383.239V392H637.509V390.202H637.407C637.219 390.565 636.955 390.906 636.614 391.224C636.279 391.537 635.856 391.79 635.344 391.983C634.839 392.17 634.245 392.264 633.563 392.264ZM634.364 389.997C634.984 389.997 635.521 389.875 635.975 389.631C636.43 389.381 636.779 389.051 637.023 388.642C637.273 388.233 637.398 387.787 637.398 387.304V385.761C637.302 385.841 637.137 385.915 636.904 385.983C636.677 386.051 636.421 386.111 636.137 386.162C635.853 386.213 635.572 386.259 635.293 386.298C635.015 386.338 634.773 386.372 634.569 386.401C634.109 386.463 633.697 386.565 633.333 386.707C632.969 386.849 632.683 387.048 632.472 387.304C632.262 387.554 632.157 387.878 632.157 388.276C632.157 388.844 632.364 389.273 632.779 389.562C633.194 389.852 633.722 389.997 634.364 389.997ZM649.288 392.256C647.981 392.256 646.859 391.969 645.921 391.395C644.989 390.821 644.271 390.028 643.765 389.017C643.265 388 643.015 386.83 643.015 385.506C643.015 384.176 643.271 383.003 643.782 381.986C644.293 380.963 645.015 380.168 645.947 379.599C646.884 379.026 647.992 378.739 649.271 378.739C650.333 378.739 651.273 378.935 652.092 379.327C652.915 379.713 653.572 380.261 654.06 380.972C654.549 381.676 654.827 382.5 654.896 383.443H651.947C651.827 382.812 651.543 382.287 651.094 381.866C650.651 381.44 650.058 381.227 649.313 381.227C648.683 381.227 648.129 381.398 647.651 381.739C647.174 382.074 646.802 382.557 646.535 383.188C646.273 383.818 646.143 384.574 646.143 385.455C646.143 386.347 646.273 387.114 646.535 387.756C646.796 388.392 647.163 388.884 647.634 389.23C648.112 389.571 648.671 389.741 649.313 389.741C649.768 389.741 650.174 389.656 650.532 389.486C650.896 389.31 651.2 389.057 651.444 388.727C651.688 388.398 651.856 387.997 651.947 387.526H654.896C654.822 388.452 654.549 389.273 654.077 389.989C653.606 390.699 652.964 391.256 652.151 391.659C651.339 392.057 650.384 392.256 649.288 392.256ZM660.241 387.892L660.233 384.168H660.727L665.432 378.909H669.037L663.25 385.352H662.611L660.241 387.892ZM657.429 392V374.545H660.514V392H657.429ZM665.645 392L661.384 386.043L663.463 383.869L669.335 392H665.645ZM683.097 392H677.183V374.545H683.217C684.95 374.545 686.438 374.895 687.683 375.594C688.933 376.287 689.893 377.284 690.563 378.585C691.234 379.886 691.569 381.443 691.569 383.256C691.569 385.074 691.231 386.636 690.555 387.943C689.884 389.25 688.915 390.253 687.648 390.952C686.387 391.651 684.87 392 683.097 392ZM680.344 389.264H682.944C684.16 389.264 685.174 389.043 685.987 388.599C686.799 388.151 687.41 387.483 687.819 386.597C688.228 385.705 688.433 384.591 688.433 383.256C688.433 381.92 688.228 380.812 687.819 379.932C687.41 379.045 686.805 378.384 686.004 377.946C685.208 377.503 684.219 377.281 683.038 377.281H680.344V389.264ZM700.232 392.256C698.92 392.256 697.786 391.983 696.832 391.438C695.883 390.886 695.153 390.108 694.641 389.102C694.13 388.091 693.874 386.901 693.874 385.531C693.874 384.185 694.13 383.003 694.641 381.986C695.158 380.963 695.88 380.168 696.806 379.599C697.732 379.026 698.82 378.739 700.07 378.739C700.877 378.739 701.638 378.869 702.354 379.131C703.076 379.386 703.712 379.784 704.263 380.324C704.82 380.864 705.258 381.551 705.576 382.386C705.894 383.216 706.053 384.205 706.053 385.352V386.298H695.323V384.219H703.096C703.09 383.628 702.962 383.102 702.712 382.642C702.462 382.176 702.113 381.81 701.664 381.543C701.221 381.276 700.704 381.142 700.113 381.142C699.482 381.142 698.928 381.295 698.451 381.602C697.974 381.903 697.602 382.301 697.335 382.795C697.073 383.284 696.94 383.821 696.934 384.406V386.222C696.934 386.983 697.073 387.636 697.352 388.182C697.63 388.722 698.019 389.136 698.519 389.426C699.019 389.71 699.604 389.852 700.275 389.852C700.724 389.852 701.13 389.79 701.494 389.665C701.857 389.534 702.173 389.344 702.44 389.094C702.707 388.844 702.908 388.534 703.045 388.165L705.925 388.489C705.744 389.25 705.397 389.915 704.886 390.483C704.38 391.045 703.732 391.483 702.942 391.795C702.153 392.102 701.249 392.256 700.232 392.256ZM719.982 378.909L715.32 392H711.911L707.249 378.909H710.538L713.547 388.634H713.683L716.7 378.909H719.982ZM727.467 392.256C726.154 392.256 725.021 391.983 724.066 391.438C723.117 390.886 722.387 390.108 721.876 389.102C721.364 388.091 721.109 386.901 721.109 385.531C721.109 384.185 721.364 383.003 721.876 381.986C722.393 380.963 723.114 380.168 724.04 379.599C724.967 379.026 726.055 378.739 727.305 378.739C728.112 378.739 728.873 378.869 729.589 379.131C730.31 379.386 730.947 379.784 731.498 380.324C732.055 380.864 732.492 381.551 732.81 382.386C733.129 383.216 733.288 384.205 733.288 385.352V386.298H722.558V384.219H730.33C730.325 383.628 730.197 383.102 729.947 382.642C729.697 382.176 729.347 381.81 728.898 381.543C728.455 381.276 727.938 381.142 727.347 381.142C726.717 381.142 726.163 381.295 725.685 381.602C725.208 381.903 724.836 382.301 724.569 382.795C724.308 383.284 724.174 383.821 724.168 384.406V386.222C724.168 386.983 724.308 387.636 724.586 388.182C724.864 388.722 725.254 389.136 725.754 389.426C726.254 389.71 726.839 389.852 727.509 389.852C727.958 389.852 728.364 389.79 728.728 389.665C729.092 389.534 729.407 389.344 729.674 389.094C729.941 388.844 730.143 388.534 730.279 388.165L733.16 388.489C732.978 389.25 732.631 389.915 732.12 390.483C731.614 391.045 730.967 391.483 730.177 391.795C729.387 392.102 728.484 392.256 727.467 392.256ZM738.983 374.545V392H735.898V374.545H738.983ZM747.866 392.256C746.587 392.256 745.479 391.974 744.542 391.412C743.604 390.849 742.877 390.062 742.36 389.051C741.849 388.04 741.593 386.858 741.593 385.506C741.593 384.153 741.849 382.969 742.36 381.952C742.877 380.935 743.604 380.145 744.542 379.582C745.479 379.02 746.587 378.739 747.866 378.739C749.144 378.739 750.252 379.02 751.19 379.582C752.127 380.145 752.852 380.935 753.363 381.952C753.88 382.969 754.138 384.153 754.138 385.506C754.138 386.858 753.88 388.04 753.363 389.051C752.852 390.062 752.127 390.849 751.19 391.412C750.252 391.974 749.144 392.256 747.866 392.256ZM747.883 389.784C748.576 389.784 749.156 389.594 749.621 389.213C750.087 388.827 750.434 388.31 750.661 387.662C750.894 387.014 751.011 386.293 751.011 385.497C751.011 384.696 750.894 383.972 750.661 383.324C750.434 382.67 750.087 382.151 749.621 381.764C749.156 381.378 748.576 381.185 747.883 381.185C747.173 381.185 746.582 381.378 746.11 381.764C745.644 382.151 745.295 382.67 745.062 383.324C744.835 383.972 744.721 384.696 744.721 385.497C744.721 386.293 744.835 387.014 745.062 387.662C745.295 388.31 745.644 388.827 746.11 389.213C746.582 389.594 747.173 389.784 747.883 389.784ZM756.757 396.909V378.909H759.791V381.074H759.97C760.129 380.756 760.354 380.418 760.643 380.06C760.933 379.696 761.325 379.386 761.82 379.131C762.314 378.869 762.945 378.739 763.712 378.739C764.723 378.739 765.635 378.997 766.447 379.514C767.266 380.026 767.913 380.784 768.391 381.79C768.874 382.79 769.115 384.017 769.115 385.472C769.115 386.909 768.879 388.131 768.408 389.136C767.936 390.142 767.294 390.909 766.482 391.438C765.669 391.966 764.749 392.23 763.72 392.23C762.97 392.23 762.348 392.105 761.854 391.855C761.359 391.605 760.962 391.304 760.661 390.952C760.365 390.594 760.135 390.256 759.97 389.938H759.842V396.909H756.757ZM759.783 385.455C759.783 386.301 759.902 387.043 760.141 387.679C760.385 388.315 760.734 388.812 761.189 389.17C761.649 389.523 762.206 389.699 762.859 389.699C763.541 389.699 764.112 389.517 764.572 389.153C765.033 388.784 765.379 388.281 765.612 387.645C765.851 387.003 765.97 386.273 765.97 385.455C765.97 384.642 765.854 383.92 765.621 383.29C765.388 382.659 765.041 382.165 764.581 381.807C764.121 381.449 763.547 381.27 762.859 381.27C762.2 381.27 761.641 381.443 761.18 381.79C760.72 382.136 760.371 382.622 760.132 383.247C759.899 383.872 759.783 384.608 759.783 385.455ZM777.553 392.256C776.24 392.256 775.107 391.983 774.152 391.438C773.203 390.886 772.473 390.108 771.962 389.102C771.45 388.091 771.195 386.901 771.195 385.531C771.195 384.185 771.45 383.003 771.962 381.986C772.479 380.963 773.2 380.168 774.126 379.599C775.053 379.026 776.141 378.739 777.391 378.739C778.197 378.739 778.959 378.869 779.675 379.131C780.396 379.386 781.033 379.784 781.584 380.324C782.141 380.864 782.578 381.551 782.896 382.386C783.214 383.216 783.374 384.205 783.374 385.352V386.298H772.643V384.219H780.416C780.411 383.628 780.283 383.102 780.033 382.642C779.783 382.176 779.433 381.81 778.984 381.543C778.541 381.276 778.024 381.142 777.433 381.142C776.803 381.142 776.249 381.295 775.771 381.602C775.294 381.903 774.922 382.301 774.655 382.795C774.393 383.284 774.26 383.821 774.254 384.406V386.222C774.254 386.983 774.393 387.636 774.672 388.182C774.95 388.722 775.339 389.136 775.839 389.426C776.339 389.71 776.925 389.852 777.595 389.852C778.044 389.852 778.45 389.79 778.814 389.665C779.178 389.534 779.493 389.344 779.76 389.094C780.027 388.844 780.229 388.534 780.365 388.165L783.246 388.489C783.064 389.25 782.717 389.915 782.206 390.483C781.7 391.045 781.053 391.483 780.263 391.795C779.473 392.102 778.57 392.256 777.553 392.256ZM785.984 392V378.909H788.975V381.091H789.112C789.35 380.335 789.759 379.753 790.339 379.344C790.924 378.929 791.592 378.722 792.342 378.722C792.512 378.722 792.702 378.73 792.913 378.747C793.129 378.759 793.308 378.778 793.45 378.807V381.645C793.319 381.599 793.112 381.56 792.827 381.526C792.549 381.486 792.279 381.466 792.018 381.466C791.455 381.466 790.95 381.588 790.501 381.832C790.058 382.071 789.708 382.403 789.452 382.83C789.197 383.256 789.069 383.747 789.069 384.304V392H785.984Z" fill="#222222"/>
</svg>
